# xmcd
#
# Track frame offsets:
#	150
#	26025
#	99900
#	117438
#	147995
#	208856
#	230973
#	260119
#	304439
#	349189
#
# Disc length: 4741 seconds
#
# Revision: 1
# Processed by: cddbd v1.5.2PL0 Copyright (c) Steve Scherf et al.
# Submitted via: audiograbber 1.83.01
#
DISCID=a112830a
DTITLE=Krautrock Vol. 2 - Music For Your Brain
DYEAR=2007
DGENRE=Krautrock
TTITLE0=Gomorrha - Opening Of A Sealed Book
TTITLE1=Silberbart - Brain Brain
TTITLE2=Topas - Lemon Boy
TTITLE3=Lucifer's Friend - Thus Spoke Oberon
TTITLE4=Scorpions - Lonesome Crow
TTITLE5=Professor Wulfff - Das Zimmer
TTITLE6=Frumpy - I'm Afraid Big Moon
TTITLE7=Cravinkel - Garden Of Loneliness
TTITLE8=Epitaph - Stop, Look And Listen
TTITLE9=Guru Guru - Salto Mortadella
EXTD=
EXTT0=
EXTT1=
EXTT2=
EXTT3=
EXTT4=
EXTT5=
EXTT6=
EXTT7=
EXTT8=
EXTT9=
PLAYORDER=
